<svg xmlns="http://www.w3.org/2000/svg" viewBox="0 0 325.09 79.61">
	<rect width="325.09" height="79.61" style="fill:none" />
	<path d="M127.67,58.44c-2.57-2.54-6.09-3.24-10.55-3.41,0,0-6,.12-7.53.12V76.81c4.83,0,11.53.43,14.89-1C130.74,73.24,133,63.63,127.67,58.44Zm-10.15,11.8V61.92C124.5,61.34,124.45,70.91,117.52,70.24Z" transform="translate(-28.64 -26.17)" style="fill:#43B02A" />
	<path d="M242.64,55.41h7.74a85.41,85.41,0,0,0,6.58,11v-11l7.66,0c0,5.39,0,13.15,0,21.44h-8c-1.31-2.22-3.84-6.66-6.22-10.25,0,1.79,0,7.67,0,10.25h-7.74C242.58,74,242.75,60.79,242.64,55.41Z" transform="translate(-28.64 -26.17)" style="fill:#43B02A" />
	<path d="M85.92,47.82l12.85,21.8L94.1,76.81h-26l-4.16-7,9.27-14.7h8l.41,0-4-7.3Zm-4.44,7.79-8,14H89.76L81.62,55.31Z" transform="translate(-28.64 -26.17)" style="fill:#43B02A" />
	<polygon points="160.04 28.98 160.04 28.98 152.67 28.98 152.67 28.98 144.85 50.64 152.38 50.64 156.36 37.71 160.33 50.64 167.87 50.64 160.04 28.98" style="fill:#43B02A" />
	<polygon points="266.07 28.98 266.07 28.98 258.7 28.98 258.7 28.98 250.88 50.64 258.42 50.64 262.39 37.71 266.36 50.64 273.9 50.64 266.07 28.98" style="fill:#43B02A" />
	<polygon points="117.89 50.64 103.23 50.64 103.23 28.98 117.89 28.98 117.89 34.8 111.06 34.8 111.06 36.92 117.11 36.92 117.11 42.55 111.1 42.55 111.1 44.72 117.89 44.72 117.89 50.64" style="fill:#43B02A" />
	<path d="M221.93,58.44c-2.58-2.54-6.09-3.24-10.55-3.41,0,0-6,.12-7.53.12V76.81c4.83,0,11.52.43,14.89-1C225,73.24,227.22,63.63,221.93,58.44Zm-10.15,11.8V61.92C218.76,61.34,218.71,70.91,211.78,70.24Z" transform="translate(-28.64 -26.17)" style="fill:#43B02A" />
	<polygon points="212.14 50.64 197.48 50.64 197.48 28.98 212.14 28.98 212.14 34.8 205.31 34.8 205.31 36.92 211.37 36.92 211.37 42.55 205.36 42.55 205.36 44.72 212.14 44.72 212.14 50.64" style="fill:#43B02A" />
	<polygon points="119.72 50.63 119.72 28.97 127.53 28.97 127.53 43.62 134.12 43.62 134.12 50.63 119.72 50.63" style="fill:#43B02A" />
	<polygon points="274.94 50.63 274.94 28.97 282.74 28.97 282.74 43.62 289.34 43.62 289.34 50.63 274.94 50.63" style="fill:#43B02A" />
	<polygon points="131.72 35.96 131.72 28.98 148.2 28.98 148.2 35.96 143.98 35.96 143.98 50.64 135.86 50.64 135.86 35.96 131.72 35.96" style="fill:#43B02A" />
	<polygon points="237.61 35.96 237.61 28.98 254.09 28.98 254.09 35.96 249.87 35.96 249.87 50.64 241.75 50.64 241.75 35.96 237.61 35.96" style="fill:#43B02A" />
	<path d="M317.54,56.77a2.94,2.94,0,1,1,2.95,2.92A2.92,2.92,0,0,1,317.54,56.77Zm5.44,0a2.49,2.49,0,1,0-2.49,2.47A2.5,2.5,0,0,0,323,56.77Zm-1.1,1.58h-.54l-1-1.47h-.54v1.47h-.45v-3.2h1.4c.57,0,1.13.16,1.13.85s-.43.85-1,.88Zm-1.5-1.93c.4,0,1.09.08,1.09-.43,0-.33-.43-.39-.77-.39h-.86v.82Z" transform="translate(-28.64 -26.17)" style="fill:#43B02A" />
</svg>
