<svg xmlns="http://www.w3.org/2000/svg" viewBox="0 0 279.02 114.17">
	<g>
		<path d="M36,139.07h-1V126.41h-4.4v-.89h9.76v.89H36Z" transform="translate(-30.67 -25.09)" style="fill: #2a3d8f" />
		<path d="M61.19,139.07h-7.4V125.52h7.4v.87H54.73v5.13h6.1v.87h-6.1v5.81h6.46Z" transform="translate(-30.67 -25.09)" style="fill: #2a3d8f" />
		<path d="M81.39,126.18a5.13,5.13,0,0,0-4,1.63,6.49,6.49,0,0,0-1.46,4.47,6.69,6.69,0,0,0,1.38,4.5,4.93,4.93,0,0,0,3.95,1.6,10.72,10.72,0,0,0,3.13-.43v.83a10.15,10.15,0,0,1-3.36.47,5.69,5.69,0,0,1-4.49-1.84,7.51,7.51,0,0,1-1.64-5.15,8.09,8.09,0,0,1,.78-3.64,5.71,5.71,0,0,1,2.26-2.43,6.52,6.52,0,0,1,3.41-.86,8.29,8.29,0,0,1,3.55.74l-.38.85A6.94,6.94,0,0,0,81.39,126.18Z" transform="translate(-30.67 -25.09)" style="fill: #2a3d8f" />
		<path d="M108.55,139.07h-1v-6.66H99.68v6.66h-.94V125.52h.94v6h7.91v-6h1Z" transform="translate(-30.67 -25.09)" style="fill: #2a3d8f" />
		<path d="M133.58,139.07h-1l-8-12h-.07c.07,1.44.11,2.52.11,3.25v8.78h-.91V125.52h1l8,12h.05c-.05-1.11-.08-2.17-.08-3.17v-8.84h.92Z" transform="translate(-30.67 -25.09)" style="fill: #2a3d8f" />
		<path d="M160.15,132.28a7.59,7.59,0,0,1-1.61,5.1,6.22,6.22,0,0,1-8.89,0,7.62,7.62,0,0,1-1.61-5.12,7.48,7.48,0,0,1,1.62-5.09,5.62,5.62,0,0,1,4.45-1.86,5.53,5.53,0,0,1,4.44,1.87A7.6,7.6,0,0,1,160.15,132.28Zm-11.08,0a7,7,0,0,0,1.29,4.5,5.22,5.22,0,0,0,7.47,0,8.49,8.49,0,0,0,0-9,5.22,5.22,0,0,0-7.45,0A6.78,6.78,0,0,0,149.07,132.28Z" transform="translate(-30.67 -25.09)" style="fill: #2a3d8f" />
		<path d="M174.61,139.07V125.52h.94v12.66H182v.89Z" transform="translate(-30.67 -25.09)" style="fill: #2a3d8f" />
		<path d="M207.08,132.28a7.59,7.59,0,0,1-1.61,5.1,6.22,6.22,0,0,1-8.89,0,7.62,7.62,0,0,1-1.61-5.12,7.43,7.43,0,0,1,1.63-5.09,6.22,6.22,0,0,1,8.88,0A7.55,7.55,0,0,1,207.08,132.28Zm-11.08,0a6.91,6.91,0,0,0,1.3,4.5,5.2,5.2,0,0,0,7.46,0,8.49,8.49,0,0,0,0-9,5.22,5.22,0,0,0-7.45,0A6.78,6.78,0,0,0,196,132.28Z" transform="translate(-30.67 -25.09)" style="fill: #2a3d8f" />
		<path d="M226.87,132.24h5v6.18a11.13,11.13,0,0,1-4.42.83,6.41,6.41,0,0,1-4.91-1.81,7.16,7.16,0,0,1-1.71-5.13,7.78,7.78,0,0,1,.84-3.66,6,6,0,0,1,2.43-2.47,7.38,7.38,0,0,1,3.63-.87,9.36,9.36,0,0,1,4,.81l-.38.86a8.49,8.49,0,0,0-3.65-.82,5.54,5.54,0,0,0-4.24,1.66,6.19,6.19,0,0,0-1.57,4.46,6.35,6.35,0,0,0,1.49,4.6,5.8,5.8,0,0,0,4.38,1.54,8.53,8.53,0,0,0,3.18-.53v-4.76h-4Z" transform="translate(-30.67 -25.09)" style="fill: #2a3d8f" />
		<path d="M246.61,139.07V125.52h.94v13.55Z" transform="translate(-30.67 -25.09)" style="fill: #2a3d8f" />
		<path d="M270.14,139.07h-7.41V125.52h7.41v.87h-6.46v5.13h6.1v.87h-6.1v5.81h6.46Z" transform="translate(-30.67 -25.09)" style="fill: #2a3d8f" />
		<path d="M292,135.58a3.24,3.24,0,0,1-1.25,2.68,5.16,5.16,0,0,1-3.31,1,10.51,10.51,0,0,1-3.81-.54v-1a9.55,9.55,0,0,0,3.74.62,4.16,4.16,0,0,0,2.64-.76,2.44,2.44,0,0,0,1-2,2.28,2.28,0,0,0-.33-1.27,2.85,2.85,0,0,0-1.05-.92,13,13,0,0,0-2.15-.9,7.43,7.43,0,0,1-2.87-1.54,3.07,3.07,0,0,1-.79-2.21,3,3,0,0,1,1.19-2.48,4.71,4.71,0,0,1,3.06-1,9,9,0,0,1,3.59.72l-.35.82a8.35,8.35,0,0,0-3.22-.71,3.74,3.74,0,0,0-2.39.7,2.27,2.27,0,0,0-.89,1.89,2.17,2.17,0,0,0,1.17,2.1,12.65,12.65,0,0,0,2.13.92,11.52,11.52,0,0,1,2.38,1.06,3.31,3.31,0,0,1,1.16,1.17A3.1,3.1,0,0,1,292,135.58Z" transform="translate(-30.67 -25.09)" style="fill: #2a3d8f" />
	</g>
	<g>
		<path d="M264.82,99.68a7.47,7.47,0,0,1-5.21,5.19c2.52,1,4.51,4,5.21,7.7.69-3.74,2.68-6.69,5.21-7.7A7.43,7.43,0,0,1,264.82,99.68Z" transform="translate(-30.67 -25.09)" style="fill: #2a3d8f" />
		<path d="M66.28,64.5a28,28,0,0,0-7.17-3.66,24.77,24.77,0,0,0-7.88-1.24,19.36,19.36,0,0,0-6.91,1.16,16.32,16.32,0,0,0-5.22,3.17,14.24,14.24,0,0,0-3.36,4.59,12.88,12.88,0,0,0-1.19,5.38,12.36,12.36,0,0,0,2.34,7.76,17.57,17.57,0,0,0,5.35,4.55,41.12,41.12,0,0,0,6.35,2.85,47.15,47.15,0,0,1,5.66,2.38,13.6,13.6,0,0,1,3.89,2.8,5,5,0,0,1,1.14,3.59,5.87,5.87,0,0,1-2.2,4.68,9.51,9.51,0,0,1-6.53,2.06,17.5,17.5,0,0,1-6.65-1.26,36,36,0,0,1-6.36-3.43L36.26,99a1,1,0,0,0-.76-.15,1,1,0,0,0-.64.44l-3.31,5.21a1,1,0,0,0,.28,1.36l1.21.82a39.7,39.7,0,0,0,8.12,4.22,26.5,26.5,0,0,0,9.39,1.66,18.88,18.88,0,0,0,7-1.23,17.74,17.74,0,0,0,5.34-3.24,14.38,14.38,0,0,0,3.58-4.93,14.71,14.71,0,0,0,1.23-5.9,12.41,12.41,0,0,0-2.34-7.77A17,17,0,0,0,60,85a44.34,44.34,0,0,0-6.33-2.78,55.07,55.07,0,0,1-5.7-2.34,12.63,12.63,0,0,1-3.84-2.74A5,5,0,0,1,43,73.56a5.5,5.5,0,0,1,1.92-4.06c1.28-1.26,3.43-1.9,6.36-1.9a15.53,15.53,0,0,1,5.22.85,21.89,21.89,0,0,1,5.23,2.9l1.31,1a1,1,0,0,0,.78.17,1,1,0,0,0,.66-.46l3.29-5.37a1,1,0,0,0-.28-1.34Z" transform="translate(-30.67 -25.09)" style="fill: #2a3d8f" />
		<path d="M108.55,60.49H93.78V45.62a1,1,0,0,0-1.57-.82l-6.63,4.68a1,1,0,0,0-.43.82V60.77l-7.42.2a1,1,0,0,0-1,1v5.86a1,1,0,0,0,1,1h7.39V98.27c0,4.79,1.3,8.42,3.87,10.8s6.09,3.5,10.66,3.5a25.37,25.37,0,0,0,3.71-.25c1.08-.15,2.18-.35,3.27-.58l1.32-.28a1,1,0,0,0,.79-1.08l-.66-6.32a1,1,0,0,0-.43-.72,1,1,0,0,0-.83-.14l-1.69.45a22.41,22.41,0,0,1-2.54.5,21.36,21.36,0,0,1-2.94.19c-4.19,0-5.9-1.75-5.9-6.07V68.71h14.77a1,1,0,0,0,1-1V61.49A1,1,0,0,0,108.55,60.49Z" transform="translate(-30.67 -25.09)" style="fill: #2a3d8f" />
		<path d="M159.16,66.93A20.52,20.52,0,0,0,152,61.55a23.23,23.23,0,0,0-9.78-1.95,24,24,0,0,0-10.06,2.06,22.83,22.83,0,0,0-7.76,5.74,25.31,25.31,0,0,0-4.91,8.51,31,31,0,0,0-1.67,10.23,30.05,30.05,0,0,0,1.73,10.25,24.24,24.24,0,0,0,5.19,8.5,23.73,23.73,0,0,0,8.62,5.67,31.65,31.65,0,0,0,11.69,2,39.69,39.69,0,0,0,8.12-.89,32.8,32.8,0,0,0,7.73-2.59l1.14-.56a1,1,0,0,0,.51-1.17l-.84-2.88c-.16-.47-.35-1-.59-1.65l-.58-1.51a1,1,0,0,0-.57-.57,1,1,0,0,0-.8,0l-1.46.69a31.66,31.66,0,0,1-6.09,2.11,28.36,28.36,0,0,1-6.57.76,22.16,22.16,0,0,1-8.21-1.38,15.33,15.33,0,0,1-5.62-3.73,16.23,16.23,0,0,1-3.44-5.74,20.94,20.94,0,0,1-1.09-5h37.22a1,1,0,0,0,1-1v-3a32.09,32.09,0,0,0-1.42-9.66A23,23,0,0,0,159.16,66.93ZM127.09,80.41a19.2,19.2,0,0,1,1.1-3.54,15.38,15.38,0,0,1,3.12-4.8A14,14,0,0,1,135.93,69,15.71,15.71,0,0,1,142,67.82,14.8,14.8,0,0,1,148.11,69a12.45,12.45,0,0,1,4.26,3.1,14.58,14.58,0,0,1,2.7,4.75,19.61,19.61,0,0,1,.88,3.57Z" transform="translate(-30.67 -25.09)" style="fill: #2a3d8f" />
		<path d="M186.39,25.09h-.32a1,1,0,0,0-.6.19l-6.31,4.66a1,1,0,0,0-.4.8v79.94a1,1,0,0,0,1,1h6.63a1,1,0,0,0,1-1V26.09A1,1,0,0,0,186.39,25.09Z" transform="translate(-30.67 -25.09)" style="fill: #2a3d8f" />
		<path d="M211.11,25.28l-6.53,4.82a1,1,0,0,0-.41.81v79.77a1,1,0,0,0,1,1h6.63a1,1,0,0,0,1-1V26.09A1.11,1.11,0,0,0,211.11,25.28Z" transform="translate(-30.67 -25.09)" style="fill: #2a3d8f" />
		<path d="M308.69,59.26h-1.5a19.59,19.59,0,0,0-11.28,3.56,29.33,29.33,0,0,0-3.69,3V61.49a1,1,0,0,0-1-1H284.7a1,1,0,0,0-1,1v49.19a1,1,0,0,0,1,1h6.64a1,1,0,0,0,1-1V78.06a18.52,18.52,0,0,1,15-10.24l1.39-.1a1,1,0,0,0,.93-1V60.26A1,1,0,0,0,308.69,59.26Z" transform="translate(-30.67 -25.09)" style="fill: #2a3d8f" />
		<path d="M251.48,102.46c-5.32,2.84-10.7,5.21-16.3,5.68a9.41,9.41,0,0,1-5.79-1c-2.43-1.41-3.13-4.46-1.64-8.06a32.66,32.66,0,0,1,3.53-6.3A43.38,43.38,0,0,1,238,85.48a11.51,11.51,0,0,1-.4-3,11.38,11.38,0,0,1,1.94-6.38c-8.32,6.45-15.64,14.22-16.65,16.79a1.65,1.65,0,0,0-.13.42,27.81,27.81,0,0,0-3.25,6.72c-1.49,4.57-.8,8.55,1.9,10.91a9.82,9.82,0,0,0,5.74,2.34,27,27,0,0,0,12.22-1.86c8.14-3,15.91-8,23.45-14.06a44.28,44.28,0,0,0,7.84-8.15c-.11,0-.18-.11-.21-.08A88.47,88.47,0,0,1,251.48,102.46Z" transform="translate(-30.67 -25.09)" style="fill: #2a3d8f" />
		<path d="M240.18,82.47a8.77,8.77,0,0,0,.06,1,8.86,8.86,0,0,0,7.12,7.65c2.94-1.59,7.07-5.37,10.52-8.81,0-.1,0-.21,0-.31a7.53,7.53,0,0,0-.08-.83,8.85,8.85,0,0,0-17.6,1.27Z" transform="translate(-30.67 -25.09)" style="fill: #2a3d8f" />
		<path d="M249,71a11.28,11.28,0,0,1,5.39,1.39,3.24,3.24,0,0,1,6.16,1.39,3.23,3.23,0,0,1-1.73,2.85A11.27,11.27,0,0,1,260.2,80V80a43.37,43.37,0,0,0,4.07-4.43c.1-.13.21-.24.31-.37a10.72,10.72,0,0,0,1.2-1.87c.93-1.9.95-3.73.12-4.88h0c-2-2.83-8.51-1.89-8.51-1.89h0c-3.26.46-7.16,2.28-11.14,4.76A11.57,11.57,0,0,1,249,71Z" transform="translate(-30.67 -25.09)" style="fill: #2a3d8f" />
		<path d="M257.34,71.54a2.27,2.27,0,0,0-1.8.91,12.29,12.29,0,0,1,3.2,3.07,2.23,2.23,0,0,0-1.4-4Z" transform="translate(-30.67 -25.09)" style="fill: #2a3d8f" />
		<path d="M277.3,59.67a9.22,9.22,0,0,0-5.67-2.75l-.3-.08H271c-3-.34-7.13.11-12.78,2.53Q244.33,64.85,232,77.51c-1.2,1.24-2.37,2.59-3.56,3.88a.45.45,0,0,0,.59-.08c4.36-3.48,8.62-7.35,13.08-10.37,6.45-4.37,13.13-7.52,20.05-8.67,2.35-.39,4.76-.57,7.07.84s2.88,4.33,1.52,8c-.28.73-.58,1.41-.9,2.06a23,23,0,0,1-1.38,2.41c-.19.28-.38.54-.57.81-.31.44-.64.86-1,1.27s-.4.52-.63.8c-.54.64-1.08,1.27-1.63,1.87-.33.38-.69.76-1.08,1.16l-.12.14c-.5.52-1,1-1.51,1.52l-1,1c-.52.49-1,1-1.55,1.43l-1,.91a67,67,0,0,1-8.67,6.21c-.52.3-1,.62-1.55.91l-.64.35a18.55,18.55,0,0,1-4.48,1.68,8,8,0,0,1-1.77,0,1.64,1.64,0,0,1-.46-.12l-.12,0-.1-.06a1.35,1.35,0,0,1-.38-.33,4.58,4.58,0,0,1-.59-3.49c0-.13,0-.25.07-.38.13-.49.29-1,.46-1.45,0-.1.06-.19.1-.29l.41-1.18c.06-.15.11-.31.17-.47l-.32.25c-.34.26-.68.54-1,.82A37.72,37.72,0,0,0,233.66,95a12,12,0,0,0-1.43,2.47c-.86,2-.65,3.85.69,4.71a8.2,8.2,0,0,0,3.61,1.33c3.21.34,6.36-.64,9.48-1.89,5.91-2.38,11.49-6.32,16.92-11a64.55,64.55,0,0,0,12.82-14,23.37,23.37,0,0,0,3.77-8.9c.45-2.53.31-5-1-6.69A11.38,11.38,0,0,0,277.3,59.67Z" transform="translate(-30.67 -25.09)" style="fill: #2a3d8f" />
	</g>
</svg>
